<svg width="1726" height="658" viewBox="0 0 1726 658" fill="none" xmlns="http://www.w3.org/2000/svg">
<path fill-rule="evenodd" clip-rule="evenodd" d="M864.238 75.4014C827.136 116.872 796.534 150.887 796.225 150.991C795.923 151.094 788.194 143.646 779.057 134.439C769.92 125.232 762.205 117.931 761.91 118.215C761.621 118.498 723.469 177.155 677.138 248.562C630.805 319.97 592.1 379.348 591.125 380.514L589.354 382.633L595.493 379.641C598.87 377.995 603.491 375.641 605.763 374.409C608.035 373.177 682.118 322.533 770.394 261.866C905.136 169.266 931.035 151.7 931.791 152.417C933.472 154.017 1053.17 300.057 1054.38 301.974C1055.32 303.474 1128.08 385.773 1130.67 388.263C1131.66 389.22 1132.51 390.896 1061.75 252.572C1024.95 180.655 980.83 94.4062 963.703 60.907C946.57 27.4085 932.353 0 932.12 0C931.88 0 901.333 33.9303 864.238 75.4014ZM305.977 412.348C301.447 413.335 292.5 417.242 286.555 420.828C281.15 424.089 272.854 431.657 269.18 436.68C265.483 441.734 262.264 447.767 259.471 454.875C253.647 469.698 234.699 545.927 230.649 570.83C227.982 587.225 229.357 593.526 235.959 595.164C242.109 596.69 252.61 592.3 266.634 582.34C269.662 580.19 275.229 576.723 279.004 574.637C288.525 569.375 292.777 565.312 294.742 559.597L295.212 558.232L291.618 559.191C286.105 560.662 281.666 562.633 274.604 566.745C267.294 571.002 262.518 572.798 256.944 573.387L253.103 573.792L253.562 569.227C255.043 554.524 258.417 537.803 264.938 512.853C271.831 486.475 286.053 436.97 287.571 434.069C291.137 427.252 293.176 426.594 309.825 426.89L322.8 427.12L324.066 423.779C324.763 421.942 325.789 419.985 326.347 419.432C327.425 418.362 329.458 413.662 329.458 412.24C329.458 411.069 311.47 411.152 305.977 412.348ZM389.521 412.025C378.401 413.1 371.995 416.64 354.906 431.154C335.94 447.263 334.963 448.487 332.26 459.501C318.359 516.152 301.072 586.198 299.996 590.224C299.232 593.089 298.674 595.48 298.759 595.537C299 595.702 321.804 589.323 322.179 588.986C322.365 588.819 322.855 586.192 323.268 583.148C324.628 573.136 332.49 540.269 333.514 540.32C333.737 540.331 341.951 553.713 351.767 570.059C361.881 586.9 371.298 601.799 373.499 604.443C383.963 617.008 398.864 626.458 414.73 630.59C432.915 635.327 454.274 632.884 462.628 625.107C464.903 622.991 465.027 622.652 464.974 618.748C464.942 616.363 464.246 612.598 463.326 609.83L461.733 605.038L453.31 612.458C446.306 618.631 444.006 620.253 439.666 622.109C434.711 624.219 434.159 624.323 428.802 624.071C424.078 623.849 422.469 623.472 418.941 621.782C413.369 619.112 408.01 614.743 402.413 608.303C395.502 600.35 389.999 591.749 379.228 572.064C362.798 542.037 358.285 532.016 358.292 525.572C358.296 521.285 359.336 520.06 366.692 515.679C369.615 513.938 375.268 509.607 379.254 506.056C383.24 502.506 387.275 499.425 388.22 499.213C391.599 498.45 396.446 499.433 403.037 502.215L409.688 505.023L416.212 495.012C419.8 489.505 422.83 484.62 422.946 484.157C423.485 482.001 404.583 480.899 397.101 482.65C388.76 484.602 385.618 486.659 371.401 499.478C355.133 514.144 350.276 518.175 342.998 523.047C338.777 525.874 337.296 526.583 337.131 525.858C336.818 524.488 339.949 509.5 343.583 494.966C349.721 470.416 356.648 449.435 361.437 440.891C364.056 436.218 368.698 431.313 372.497 429.203C374.944 427.844 374.803 427.846 386.541 429.059C390.391 429.458 393.284 428.372 397.72 424.863C400.835 422.399 409.085 413.041 409.085 411.971C409.085 411.301 396.658 411.334 389.521 412.025ZM1700.68 412.075C1692.17 413.191 1683.02 418.329 1671.2 428.635C1657.07 440.957 1653.15 448.499 1646.4 476.337C1644.7 483.392 1640.98 497.475 1638.15 507.635C1628.32 542.899 1624.93 558.756 1624.29 572.479C1623.83 582.053 1624.65 587.291 1627.21 591.258C1628.8 593.723 1632.24 595.81 1634.72 595.81C1638.39 595.81 1661.86 582.713 1672.58 574.692C1680.58 568.699 1687.89 560.709 1687.11 558.823C1686.72 557.877 1679.88 560.659 1673.41 564.402C1664.77 569.392 1656.7 572.897 1652.75 573.377L1649.49 573.773V570.433C1649.49 553.259 1665.84 480.262 1677.35 446.079C1681.43 433.973 1683.65 430.672 1689.6 427.918C1692.39 426.631 1694.94 426.61 1705.48 427.791C1708.23 428.1 1709.53 427.92 1711.66 426.932C1715.81 425.008 1721.12 419.436 1724.57 413.397L1725.72 411.392L1715.23 411.468C1709.46 411.509 1702.92 411.782 1700.68 412.075ZM752.993 413.419C749.245 414.679 739.95 420.566 739.95 421.677C739.95 422.225 741.385 425.477 743.135 428.905C747.584 437.617 748.84 441.179 749.478 446.857C751.496 464.83 742.339 484.789 716.096 519.637C701.173 539.454 689.511 552.492 680.221 559.747C672.804 565.539 673.164 565.698 673.695 556.851C673.946 552.667 674.607 543.969 675.164 537.524C675.72 531.079 676.46 516.646 676.807 505.451C677.155 494.257 678.061 478.298 678.823 469.987C680.139 455.619 680.675 439.764 679.844 439.764C678.338 439.764 671.058 443.58 666.902 446.547C654.316 455.534 641.928 470.817 617.404 507.61C606.049 524.645 586.693 551.151 582.497 555.411L580.066 557.878L580.038 554.462C579.984 547.973 581.977 535.709 586.915 512.155C588.417 504.986 590.861 492.08 592.346 483.474C595.414 465.685 596.614 460.169 598.587 454.793C600.211 450.365 601.44 449.186 604.721 448.91C606.802 448.735 607.326 448.336 608.633 445.932C609.464 444.406 610.36 442.349 610.623 441.361L611.104 439.564L594.698 439.956C551.28 440.992 525.71 447.674 511.425 461.719C504.876 468.157 501.749 474.597 500.386 484.451C499.378 491.738 500.394 498.745 503.923 508.844C505.523 513.423 506.92 517.28 507.026 517.415C507.211 517.649 511.128 515.679 524.847 508.455L531.121 505.151L528.4 499.482C523.875 490.049 522.152 483.176 522.485 475.876C522.721 470.709 523.067 469.159 524.564 466.555C529.5 457.972 540.11 453.93 561.282 452.57C567.405 452.176 572.571 451.995 572.762 452.167C573.2 452.561 571.532 466.163 569.686 477.258C568.912 481.909 564.598 505.698 560.1 530.123C553.088 568.202 551.111 579.697 548.729 596.253L548.355 598.855L553.39 596.793C572.907 588.802 572.571 589.1 589.313 564.976C593.431 559.042 605.301 542.619 615.691 528.481C626.081 514.342 637.172 499.122 640.339 494.658C643.505 490.194 647.618 485.106 649.479 483.353L652.862 480.163L652.441 498.975C652.21 509.322 651.576 527.085 651.033 538.449C650.489 549.813 649.836 567.405 649.58 577.542L649.115 595.973L655.234 595.515C664.518 594.822 665.469 594.308 673.958 585.407C696.547 561.723 717.263 537.47 732.873 516.443C765.939 471.885 779.359 438.692 772.227 419.053L770.648 414.687L766.797 413.98C760.063 412.745 755.54 412.561 752.993 413.419ZM1228.73 422.234C1224.5 423.883 1222.24 425.94 1218.84 431.244L1215.5 436.452L1167.7 436.412C1117.62 436.37 1111.15 436.631 1099.07 439.177C1080.85 443.018 1063.83 451.326 1053.13 461.601C1045.76 468.681 1041.06 476.219 1038.79 484.593C1037.19 490.502 1037.34 500.977 1039.11 507.003C1041 513.44 1044.63 520.562 1046.02 520.562C1048.07 520.561 1055.85 516.866 1062.5 512.736C1066.13 510.484 1069.17 508.603 1069.25 508.555C1069.33 508.508 1068.53 506.541 1067.47 504.185C1064.47 497.574 1063.21 492.47 1062.8 485.406C1062.34 477.465 1063.2 472.965 1066.35 467.012C1069.31 461.423 1074.25 456.926 1080.89 453.79C1089.36 449.791 1091.68 449.506 1118.35 449.184C1131.47 449.026 1142.21 449.076 1142.21 449.296C1142.21 449.516 1139.28 461.547 1135.71 476.032C1123.2 526.707 1114.03 557.135 1108.12 567.619C1105.84 571.657 1100.25 576.945 1096.65 578.457C1095.09 579.114 1091.53 579.838 1088.75 580.066C1085.96 580.294 1082.95 580.734 1082.03 581.043C1079.85 581.79 1073.88 586.852 1071.46 590.006L1069.53 592.53L1090.42 592.91C1112.67 593.315 1129.95 592.719 1139.46 591.22C1151.34 589.348 1160.98 585.491 1166.59 580.375L1169.95 577.306L1162.43 577.308C1158.29 577.309 1149.96 577.742 1143.92 578.269C1132.17 579.294 1111.82 580.407 1111.41 580.048C1110.95 579.652 1115.61 574.617 1121.95 568.671C1137.96 553.66 1140.5 547.443 1155.91 485.354C1159.33 471.586 1162.68 458.819 1163.38 456.982C1165.39 451.61 1164.35 451.775 1195.55 451.896L1222.46 452.002L1224.56 447.124C1226.66 442.215 1232.12 424.349 1232.12 422.34C1232.13 421.046 1231.8 421.036 1228.73 422.234ZM201.509 435.472L191.487 443.516L193.593 446.728C196.677 451.434 201.093 459.61 201.093 460.614C201.093 461.745 202.098 461.378 208.862 457.784C219.29 452.241 223.133 447.998 221.724 443.583C221.179 441.875 212.216 427.429 211.701 427.429C211.607 427.429 207.02 431.048 201.509 435.472ZM113.228 435.202C97.9823 439.057 78.6967 451.907 69.3872 464.413C58.3195 479.279 55.9822 495.526 63.0896 508.177C66.0221 513.397 71.5646 518.451 82.2518 525.654C98.7676 536.785 104.253 543.094 106.782 553.869C111.014 571.893 97.348 588.765 73.7577 594.641C67.2549 596.261 56.5945 596.553 50.7618 595.271C35.6539 591.951 23.5477 580.798 18.7083 565.742C18.0267 563.623 17.2792 561.888 17.0471 561.887C15.8651 561.886 12.7617 564.833 10.0509 568.533C6.50954 573.367 4.07884 578.629 1.70306 586.607L0 592.323L1.39828 594.355C3.63128 597.602 11.2693 603.503 16.2831 605.856C39.7073 616.848 74.1181 611.568 101.902 592.72C119.827 580.559 130.54 564.706 131.57 548.818C132.036 541.623 131.061 536.498 128.238 531.309C124.458 524.36 118.888 519.732 101.902 509.423C93.1305 504.099 86.2325 498.164 83.5066 493.593C80.8913 489.208 79.3728 482.387 79.9735 477.723C81.4054 466.609 88.7339 456.074 98.2617 451.432C102.366 449.433 102.941 449.324 109.453 449.324C121.127 449.324 125.067 451.565 127.686 459.697C130.183 467.447 131.413 470.295 132.263 470.295C133.373 470.295 143.686 463.414 148.495 459.464C150.618 457.72 152.355 455.852 152.355 455.312C152.355 453.549 145.39 444.748 141.306 441.349C135.415 436.449 130.799 434.691 123.182 434.446C119.069 434.314 115.741 434.567 113.228 435.202ZM1502.93 477.802C1499.86 478.23 1493.73 479.876 1493.41 480.358C1493.26 480.59 1493.73 484.25 1494.45 488.49C1498.85 514.284 1495.83 528.666 1481.42 550.484C1464.2 576.557 1444.91 587.326 1436.11 575.781C1431.05 569.146 1431.16 555.839 1436.37 541.633C1440.4 530.656 1449.76 515.819 1459.18 505.451C1464.24 499.889 1467.37 494.444 1468.19 489.791C1468.5 488.058 1468.63 486.64 1468.49 486.64C1468.34 486.64 1466.76 487.302 1464.98 488.111C1456.1 492.146 1448.5 493.197 1435.63 492.167C1424.93 491.31 1417.72 491.877 1412.32 493.998C1404.05 497.248 1397.53 510.494 1396.31 526.509C1396.03 530.063 1395.95 533.093 1396.11 533.243C1396.28 533.392 1397.77 533.515 1399.42 533.515C1402.77 533.515 1402.57 533.812 1403.67 527.383C1405.27 518.121 1409.62 512.581 1416.95 510.452C1421.42 509.156 1432.62 508.106 1439.37 508.351L1444.46 508.535L1434.43 520.562C1428.91 527.177 1422.98 534.724 1421.25 537.332C1413.14 549.573 1409.44 562.96 1410.05 577.876C1410.29 583.898 1410.61 585.558 1412.1 588.474C1413.12 590.46 1414.87 592.62 1416.23 593.547C1427.46 601.242 1451.05 592.306 1475.39 571.138C1503.38 546.792 1520.39 517.657 1520.57 493.747C1520.63 485.462 1518.66 481.313 1513.51 478.905C1511.47 477.953 1505.97 477.379 1502.93 477.802ZM806.844 481.99C794.392 484.022 786.999 487.028 775.783 494.616C765.74 501.408 761.532 504.799 757.97 508.965C747.639 521.041 739.868 547.555 739.841 570.83C739.82 585.406 742.161 592.898 747.508 595.376C752.231 597.563 759.837 594.965 772.556 586.819C790.562 575.286 800.193 570.166 801.565 571.399C801.806 571.615 801.469 575.738 800.831 580.562C800.186 585.387 799.664 590.254 799.664 591.379C799.685 599.591 807.641 597.025 837.075 579.306C855.746 568.068 856.46 567.437 857.133 561.601L857.524 558.18L854.758 559.056C850.68 560.35 848.477 561.47 843.809 564.622C838.633 568.117 834.762 569.691 829.936 570.265L826.223 570.707L826.689 563.821C827.383 553.507 830.046 540.599 835.744 519.822C841.393 499.25 843.548 494.264 848.532 490.257L851.326 488.016L848.319 486.435C843.562 483.929 840.693 483.027 834.295 482.025C827.149 480.905 813.599 480.888 806.844 481.99ZM1263.23 483.805C1257.44 485.739 1249.44 489.88 1242.56 494.504C1239.41 496.624 1236.69 498.358 1236.54 498.358C1236.38 498.358 1236.25 494.99 1236.25 490.872V483.386L1232.57 483.775C1223.19 484.765 1208.38 489.295 1199.87 493.775C1191.86 497.988 1185.6 504.291 1184.44 509.301L1183.97 511.3L1189.76 508.804C1195.12 506.493 1201 505.19 1206.22 505.155L1208.1 505.143L1208.09 509.615C1208.06 518.808 1205.17 532.429 1199.52 549.86C1192.5 571.501 1191.67 574.266 1190.04 581.357C1189.1 585.405 1188.13 590.291 1187.88 592.214L1187.43 595.713L1191.39 594.782C1201.78 592.346 1208.76 587.838 1212.18 581.381C1213.27 579.31 1215 574.145 1216.02 569.905C1219.68 554.669 1225.33 533.707 1227.4 527.655C1231.49 515.742 1236.61 508.438 1242.74 505.773C1248.78 503.145 1257.82 504.435 1266.71 509.194C1268.94 510.382 1270.87 511.244 1271.02 511.109C1271.17 510.975 1272.55 508.12 1274.07 504.766C1279.12 493.651 1279.97 486.946 1276.71 483.826C1275.4 482.57 1274.5 482.328 1271.31 482.354C1269.09 482.373 1265.7 482.981 1263.23 483.805ZM1337.97 482.985C1306.68 486.632 1287.71 504.495 1277.48 539.931C1269.14 568.853 1268.78 585.374 1276.36 592.467C1283.88 599.51 1295.07 595.639 1324.38 575.853C1330.76 571.549 1336.13 568.158 1336.3 568.319C1336.48 568.48 1335.91 574.583 1335.04 581.881C1334.16 589.179 1333.65 595.328 1333.89 595.546C1334.13 595.763 1336.74 595.503 1339.69 594.968C1347.86 593.485 1355.7 589.601 1370.41 579.749C1377.55 574.958 1385.17 570.242 1387.31 569.268C1389.46 568.295 1391.41 567.046 1391.64 566.492C1391.88 565.939 1392.07 563.862 1392.07 561.877V558.267L1387.89 559.536C1385.59 560.234 1379.64 563.017 1374.68 565.722C1369.71 568.427 1364.65 570.787 1363.43 570.967C1361.5 571.253 1361.12 571.08 1360.51 569.635C1359.4 566.994 1359.68 562.042 1361.52 552.302C1365.06 533.531 1367.57 524.86 1378.38 494.158C1380.33 488.624 1381.8 483.993 1381.66 483.865C1381.52 483.738 1376.47 483.338 1370.45 482.977C1358.02 482.234 1344.37 482.237 1337.97 482.985ZM1579.47 483.883C1577.39 484.396 1573.09 485.931 1569.91 487.294C1548.34 496.533 1532.52 516.13 1526.47 541.109C1525.12 546.708 1524.95 549.205 1524.93 564.046C1524.89 583.613 1525.3 585.43 1530.7 590.288C1535.19 594.32 1539.31 595.506 1548.58 595.433C1554.31 595.388 1557.05 595.034 1561.97 593.705C1583.77 587.803 1604.81 573.055 1609.72 560.218C1610.45 558.316 1611.05 556.365 1611.05 555.884C1611.05 555.391 1607.82 557.248 1603.67 560.131C1588.96 570.343 1586.6 571.84 1581.87 573.955C1579.23 575.138 1575.36 576.511 1573.29 577.007C1569.43 577.927 1559.21 578.214 1554.6 577.53C1552.24 577.179 1551.94 576.885 1550.6 573.699C1549.82 571.801 1548.26 566.919 1547.16 562.85C1545.57 556.976 1545.33 555.307 1546.01 554.746C1546.48 554.358 1551.77 551.212 1557.78 547.754C1573.46 538.717 1583.68 531.713 1591.14 524.886C1600.9 515.95 1605.4 508.328 1606.06 499.593C1606.63 492.136 1604.59 487.988 1598.85 484.969C1596.13 483.535 1594.78 483.269 1589.46 483.122C1585.48 483.013 1581.89 483.286 1579.47 483.883ZM197.661 485.162C187.398 487.871 175.618 493.604 160.25 503.368L156.817 505.548L156.615 509.982L156.414 514.416L163.823 511.092C167.899 509.263 172.932 507.294 175.008 506.716C177.085 506.137 179.215 505.54 179.742 505.388C180.534 505.16 180.618 505.99 180.229 510.185C179.538 517.633 176.954 528.776 171.889 546.159C165.624 567.658 163.96 574.8 163.522 582.075C162.916 592.149 165.318 595.952 172.286 595.952C180.167 595.952 192.973 590.081 211.2 578.111C215.646 575.191 220.614 572.193 222.24 571.449L225.197 570.097L225.352 565.776C225.497 561.715 225.422 561.473 224.111 561.747C222.106 562.166 211.494 566.823 203.495 570.796C192.58 576.217 189.423 575.448 189.423 567.369C189.423 561.747 190.653 556.286 197.321 532.281C204.104 507.864 207.182 494.89 207.748 488.336L208.16 483.556L205.828 483.588C204.545 483.606 200.87 484.314 197.661 485.162ZM901.264 484.717C891.352 487.132 878.063 493.14 866.489 500.437C859.872 504.605 859.467 504.989 858.684 507.798C858.231 509.427 858.067 510.943 858.314 511.166C859.062 511.837 868.24 509.737 875.083 507.33C878.612 506.087 881.66 505.21 881.852 505.38C882.936 506.355 880.355 519.928 872.523 554.485C868.844 570.736 868.13 575.263 868.082 582.857C868.013 593.405 870.32 596.322 878.111 595.533C887.419 594.589 893.796 591.745 908.472 581.983C919.737 574.493 930.095 569.603 930.095 571.779C930.095 572.553 925.578 592.44 922.16 606.729C917.76 625.131 913.744 634.371 908.829 637.43C903.31 640.872 899.713 641.655 888.222 641.933C879.593 642.136 874.932 641.883 863.579 640.582C855.877 639.706 849.067 638.984 848.443 638.984C847.646 638.984 846.871 640.224 845.841 643.148C845.031 645.436 843.438 649.667 842.299 652.553L840.233 657.796L862.68 657.963C888.325 658.148 891.853 657.771 900.921 653.88C913.902 648.298 929.971 632.761 937.584 618.427C943.446 607.388 946.24 598.403 952.384 570.83C954.498 561.332 960.539 538.09 965.811 519.183C971.089 500.275 975.4 484.524 975.4 484.18C975.4 482.385 965.028 484.385 958.754 487.389C949.24 491.943 944.73 501.292 940.069 526.114C939.087 531.372 937.529 539.282 936.609 543.692C935.696 548.102 934.763 552.766 934.543 554.057C933.809 558.306 928.798 561.72 911.341 569.874C903.509 573.531 903.241 573.606 897.846 573.606H892.341V570.364C892.341 560.353 895.251 546.003 901.635 524.572C906.447 508.427 908.815 497.714 909.31 489.901L909.708 483.556L907.717 483.593C906.619 483.613 903.715 484.119 901.264 484.717ZM814.512 497.678L819.406 499.048L816.132 513.352C810.867 536.366 808.849 542.459 803.213 552.327C799.335 559.131 791.969 566.128 785.468 569.176C780.444 571.535 771.952 573.606 767.298 573.606H763.976V566.328C763.976 562.325 764.305 555.316 764.71 550.754C767.497 519.211 776.654 501.982 793.218 497.085C798.573 495.501 807.647 495.754 814.512 497.678ZM1344.39 497.537L1354.03 499.192L1351.82 504.172C1349.42 509.583 1346.94 519.297 1344.69 532.131C1342.2 546.333 1339.55 552.97 1334.62 557.354C1330.9 560.671 1319.85 567.653 1314.38 570.151C1309.84 572.227 1301.15 574.105 1299.2 573.432C1296.97 572.664 1295.41 557.403 1296.57 547.827C1299.52 523.633 1310.69 502.813 1323.63 497.401C1328.32 495.435 1332.3 495.461 1344.39 497.537ZM1580.49 497.845C1582.69 499.401 1584.28 502.453 1584.28 505.139C1584.28 510.723 1578.61 519.331 1569.64 527.398C1564.4 532.104 1550.37 542.15 1549.04 542.15C1547.55 542.15 1550.79 526.18 1554.09 517.319C1557.95 506.93 1563.1 500.076 1568.83 497.682C1572.7 496.065 1578.08 496.14 1580.49 497.845Z" fill="#041759"/>
</svg>
