<svg width="30" height="24" viewBox="0 0 30 24" fill="none" xmlns="http://www.w3.org/2000/svg">
<path d="M22.1346 4H20.9418V3C20.9418 2.73478 20.8161 2.48043 20.5924 2.29289C20.3687 2.10536 20.0653 2 19.7489 2C19.4326 2 19.1292 2.10536 18.9055 2.29289C18.6818 2.48043 18.5561 2.73478 18.5561 3V4H11.3992V3C11.3992 2.73478 11.2735 2.48043 11.0498 2.29289C10.8261 2.10536 10.5227 2 10.2063 2C9.88997 2 9.58657 2.10536 9.36287 2.29289C9.13917 2.48043 9.0135 2.73478 9.0135 3V4H7.82067C6.8716 4 5.9614 4.31607 5.2903 4.87868C4.61921 5.44129 4.24219 6.20435 4.24219 7V19C4.24219 19.7956 4.61921 20.5587 5.2903 21.1213C5.9614 21.6839 6.8716 22 7.82067 22H22.1346C23.0837 22 23.9939 21.6839 24.665 21.1213C25.3361 20.5587 25.7131 19.7956 25.7131 19V7C25.7131 6.20435 25.3361 5.44129 24.665 4.87868C23.9939 4.31607 23.0837 4 22.1346 4ZM10.2063 17C9.97041 17 9.73979 16.9414 9.54363 16.8315C9.34747 16.7216 9.19458 16.5654 9.1043 16.3827C9.01401 16.2 8.99039 15.9989 9.03642 15.8049C9.08244 15.6109 9.19605 15.4327 9.36287 15.2929C9.52969 15.153 9.74223 15.0578 9.97362 15.0192C10.205 14.9806 10.4448 15.0004 10.6628 15.0761C10.8808 15.1518 11.0671 15.28 11.1981 15.4444C11.3292 15.6089 11.3992 15.8022 11.3992 16C11.3992 16.2652 11.2735 16.5196 11.0498 16.7071C10.8261 16.8946 10.5227 17 10.2063 17ZM19.7489 17H14.9776C14.6613 17 14.3579 16.8946 14.1342 16.7071C13.9105 16.5196 13.7848 16.2652 13.7848 16C13.7848 15.7348 13.9105 15.4804 14.1342 15.2929C14.3579 15.1054 14.6613 15 14.9776 15H19.7489C20.0653 15 20.3687 15.1054 20.5924 15.2929C20.8161 15.4804 20.9418 15.7348 20.9418 16C20.9418 16.2652 20.8161 16.5196 20.5924 16.7071C20.3687 16.8946 20.0653 17 19.7489 17ZM23.3274 11H6.62784V7C6.62784 6.73478 6.75352 6.48043 6.97721 6.29289C7.20091 6.10536 7.50431 6 7.82067 6H9.0135V7C9.0135 7.26522 9.13917 7.51957 9.36287 7.70711C9.58657 7.89464 9.88997 8 10.2063 8C10.5227 8 10.8261 7.89464 11.0498 7.70711C11.2735 7.51957 11.3992 7.26522 11.3992 7V6H18.5561V7C18.5561 7.26522 18.6818 7.51957 18.9055 7.70711C19.1292 7.89464 19.4326 8 19.7489 8C20.0653 8 20.3687 7.89464 20.5924 7.70711C20.8161 7.51957 20.9418 7.26522 20.9418 7V6H22.1346C22.451 6 22.7544 6.10536 22.9781 6.29289C23.2018 6.48043 23.3274 6.73478 23.3274 7V11Z" fill="#24AB70"/>
</svg>
