<svg width="30" height="24" viewBox="0 0 30 24" fill="none" xmlns="http://www.w3.org/2000/svg">
<path d="M15.0988 11C16.087 11 16.8881 10.3284 16.8881 9.5C16.8881 8.67157 16.087 8 15.0988 8C14.1106 8 13.3096 8.67157 13.3096 9.5C13.3096 10.3284 14.1106 11 15.0988 11Z" fill="#24AB70"/>
<path d="M15.0988 2C12.5844 1.99989 10.1715 2.83176 8.38464 4.31479C6.59777 5.79782 5.5813 7.81216 5.55615 9.92C5.55615 15.4 13.9656 21.5 14.3234 21.76C14.5395 21.9149 14.8145 22.0001 15.0988 22.0001C15.3831 22.0001 15.6581 21.9149 15.8741 21.76C16.2916 21.5 24.6414 15.4 24.6414 9.92C24.6163 7.81216 23.5998 5.79782 21.8129 4.31479C20.026 2.83176 17.6132 1.99989 15.0988 2ZM15.0988 13C14.2731 13 13.4659 12.7947 12.7793 12.4101C12.0928 12.0256 11.5577 11.4789 11.2417 10.8394C10.9257 10.1999 10.843 9.49612 11.0041 8.81718C11.1652 8.13825 11.5628 7.51461 12.1467 7.02513C12.7305 6.53564 13.4744 6.2023 14.2843 6.06725C15.0941 5.9322 15.9336 6.00151 16.6964 6.26642C17.4593 6.53133 18.1113 6.97993 18.5701 7.5555C19.0288 8.13108 19.2737 8.80777 19.2737 9.5C19.2737 10.4283 18.8338 11.3185 18.0509 11.9749C17.2679 12.6313 16.206 13 15.0988 13Z" fill="#24AB70"/>
</svg>
