<svg width="29" height="24" viewBox="0 0 29 24" fill="none" xmlns="http://www.w3.org/2000/svg">
<path d="M14.6114 11C15.5551 11 16.4776 10.7654 17.2622 10.3259C18.0468 9.88635 18.6584 9.26164 19.0195 8.53074C19.3806 7.79983 19.4751 6.99556 19.291 6.21964C19.1069 5.44372 18.6525 4.73098 17.9852 4.17157C17.3179 3.61216 16.4678 3.2312 15.5422 3.07686C14.6167 2.92252 13.6573 3.00173 12.7855 3.30448C11.9137 3.60723 11.1685 4.11992 10.6442 4.77772C10.1199 5.43552 9.84009 6.20888 9.84009 7C9.84009 8.06087 10.3428 9.07828 11.2376 9.82843C12.1324 10.5786 13.346 11 14.6114 11Z" fill="#24AB70"/>
<path d="M21.7682 21C22.0846 21 22.388 20.8946 22.6117 20.7071C22.8354 20.5196 22.9611 20.2652 22.9611 20C22.9611 18.1435 22.0814 16.363 20.5155 15.0503C18.9496 13.7375 16.8258 13 14.6113 13C12.3968 13 10.273 13.7375 8.70707 15.0503C7.14118 16.363 6.26147 18.1435 6.26147 20C6.26147 20.2652 6.38715 20.5196 6.61085 20.7071C6.83454 20.8946 7.13794 21 7.4543 21H21.7682Z" fill="#24AB70"/>
</svg>
